<svg width="95" height="153" viewBox="0 0 95 153" fill="none" xmlns="http://www.w3.org/2000/svg">
<g id="02">
<path d="M4.16 132.98C1.82 128.127 0.649999 122.407 0.649999 115.82C0.649999 109.233 1.82 103.557 4.16 98.7901C6.5 93.9368 9.83667 90.1234 14.17 87.3501C18.5033 84.5768 23.4433 82.5401 28.99 81.2401C34.45 79.9401 40.6467 79.2901 47.58 79.2901C54.5133 79.2901 60.7533 79.9401 66.3 81.2401C71.76 82.5401 76.6567 84.5768 80.99 87.3501C85.3233 90.1234 88.66 93.9368 91 98.7901C93.34 103.557 94.51 109.233 94.51 115.82C94.51 122.407 93.34 128.127 91 132.98C88.66 137.747 85.3233 141.517 80.99 144.29C76.6567 147.063 71.76 149.1 66.3 150.4C60.7533 151.7 54.5133 152.35 47.58 152.35C40.6467 152.35 34.45 151.7 28.99 150.4C23.4433 149.1 18.5033 147.063 14.17 144.29C9.83667 141.517 6.5 137.747 4.16 132.98ZM23.01 109.32C21.97 111.14 21.45 113.307 21.45 115.82C21.45 118.333 21.97 120.543 23.01 122.45C23.9633 124.27 25.1767 125.7 26.65 126.74C28.1233 127.693 30.0733 128.473 32.5 129.08C34.9267 129.687 37.2667 130.077 39.52 130.25C41.7733 130.423 44.46 130.51 47.58 130.51C50.7 130.51 53.3867 130.423 55.64 130.25C57.8933 130.077 60.2333 129.687 62.66 129.08C65.0867 128.473 67.0367 127.693 68.51 126.74C69.9833 125.7 71.24 124.27 72.28 122.45C73.2333 120.543 73.71 118.333 73.71 115.82C73.71 113.307 73.2333 111.14 72.28 109.32C71.24 107.413 69.9833 105.983 68.51 105.03C67.0367 103.99 65.0867 103.167 62.66 102.56C60.2333 101.953 57.8933 101.563 55.64 101.39C53.3867 101.217 50.7 101.13 47.58 101.13C44.46 101.13 41.7733 101.217 39.52 101.39C37.2667 101.563 34.9267 101.953 32.5 102.56C30.0733 103.167 28.1233 103.99 26.65 105.03C25.1767 105.983 23.9633 107.413 23.01 109.32Z" fill="#F2F2F2"/>
<path d="M93.6 65.3254H77.09C75.01 62.9854 72.15 59.6921 68.51 55.4454C64.87 51.1988 62.0533 47.9054 60.06 45.5654C57.98 43.2254 55.4233 40.4954 52.39 37.3754C49.27 34.2554 46.6267 31.9154 44.46 30.3554C38.8267 26.2821 33.93 24.2454 29.77 24.2454C22.4033 24.2454 18.72 27.4954 18.72 33.9954C18.72 37.1154 19.8467 39.5854 22.1 41.4054C24.2667 43.2254 27.43 44.1354 31.59 44.1354V65.5854C21.19 65.5854 13.3467 62.5954 8.06 56.6154C2.68667 50.5488 0 42.6188 0 32.8254C0 23.0321 2.81667 15.4054 8.45 9.94543C13.9967 4.48543 20.7133 1.75543 28.6 1.75543C34.58 1.75543 39.8233 3.05543 44.33 5.65543C46.93 7.21543 49.14 8.55876 50.96 9.68543C52.78 10.8121 55.0333 12.6754 57.72 15.2754C60.4067 17.8754 62.3567 19.7821 63.57 20.9954C64.7833 22.2088 66.8633 24.4621 69.81 27.7554C72.7567 30.9621 74.6633 32.9988 75.53 33.8654V0.0654297H93.6V65.3254Z" fill="#F2F2F2"/>
</g>
</svg>
